# xmcd
#
# Track frame offsets:
#	150
#	7975
#	22655
#	63760
#	90180
#	106520
#	119475
#	133970
#	148660
#	178520
#	199190
#	227680
#
# Disc length: 3399 seconds
#
# Revision: 0
# Processed by: cddbd v1.5.1PL2 Copyright (c) Steve Scherf et al.
# Submitted via: EasyCDDAExtractor 8.2.3.1
#
DISCID=8d0d450c
DTITLE=BB King and Muddy Waters - Ebbits Field 05-05-73
DYEAR=1973
DGENRE=Blues
TTITLE0=intro jam
TTITLE1=Hideaway
TTITLE2=Muddy Waters intro - Sweet Little Baby
TTITLE3=Rock Me
TTITLE4=Can't Get No Grindin'
TTITLE5=Got My Mojo Workin'
TTITLE6=40 Days And 40 Nights
TTITLE7=band intros
TTITLE8=Didn't Want Me From The Start
TTITLE9=The Thrill Is Gone
TTITLE10=38th Street Blues
TTITLE11=Caledonia
EXTD=
EXTT0=
EXTT1=
EXTT2=
EXTT3=
EXTT4=
EXTT5=
EXTT6=
EXTT7=
EXTT8=
EXTT9=
EXTT10=
EXTT11=
PLAYORDER=
